<?xml version="1.0" encoding="iso-8859-1"?>
<!-- Generator: Adobe Illustrator 19.0.0, SVG Export Plug-In . SVG Version: 6.00 Build 0)  -->
<svg xmlns="http://www.w3.org/2000/svg" xmlns:xlink="http://www.w3.org/1999/xlink" version="1.1" id="Layer_1" x="0px" y="0px" viewBox="0 0 511.99 511.99" style="enable-background:new 0 0 511.99 511.99;" xml:space="preserve" width="512px" height="512px">
<g>
	<g>
		<g>
			<path d="M500.492,123.123c-1.625-4.156-9.484-20.71-36.297-36.655c-37.031-22.031-92.701-33.195-165.436-33.195     c-72.748,0-128.435,11.164-165.496,33.187c-26.891,15.976-34.766,32.554-36.391,36.671c-12.688,17.125-13.25,51.82-9.391,78.562     c2.484,17.289,8.328,42.976,21.969,67.193c13.234,23.5,30.422,39.655,51.108,48.015c5.156,2.078,11.453,3.094,19.249,3.094     c14.625,0,33.188-3.5,54.688-7.562c19.656-3.703,41.905-7.906,64.264-9.891c14.438,1.281,28.828,3.484,42.5,5.891     c0.422,0.109,0.859,0.172,1.297,0.234c7.047,1.234,13.891,2.531,20.453,3.766c21.452,4.062,39.968,7.562,54.561,7.562     c7.797,0,14.094-1.016,19.25-3.094c20.672-8.359,37.875-24.515,51.109-48.015c13.64-24.218,19.468-49.905,21.968-67.193     C513.741,174.951,513.194,140.256,500.492,123.123z M298.76,74.608c62.672,0,103.796,8.813,130.248,18.742     c-30.937-5.132-73.545-7.773-130.264-8.07c-0.047,0-0.078,0-0.109,0c-56.623,0.297-99.186,2.93-130.106,8.046     C195.012,83.405,236.137,74.608,298.76,74.608z M299.667,281.198c-0.298-0.031-0.61-0.031-0.907-0.031     c-0.312,0-0.609,0-0.922,0.031c-9.546,0.828-18.999,2.031-28.233,3.422c2.078-5.578,4.641-12.016,7.562-18.469     c13.562-29.991,21.53-31.483,21.562-31.491c0.078,0.008,8.016,1.5,21.531,31.342c2.953,6.477,5.531,12.992,7.641,18.602     C318.682,283.229,309.229,282.026,299.667,281.198z M488.773,198.653c-5.5,38.101-24.125,83.967-59.969,98.466     c-2.516,1.016-6.297,1.531-11.234,1.531c-12.593,0-30.202-3.328-50.607-7.187c-4.844-0.906-9.859-1.859-14.984-2.797     c-2.422-7.188-6.828-19.555-12.547-32.062c-13.469-29.53-26.391-43.288-40.672-43.288c-14.296,0-27.218,13.75-40.686,43.272     c-5.719,12.523-10.141,24.89-12.547,32.078c-5.141,0.938-10.141,1.875-15,2.797c-20.438,3.858-38.094,7.187-50.719,7.187     c-4.937,0-8.718-0.516-11.249-1.531c-35.827-14.499-54.468-60.365-59.952-98.474c-4.969-34.484,0.688-59.444,6.688-64.21     c23.891-18.945,78.748-27.265,183.387-27.812c104.655,0.547,159.498,8.867,183.389,27.812     C488.07,139.201,493.742,164.162,488.773,198.653z" fill="#006DF0"/>
			<path d="M234.574,350.29c-0.016-0.125-0.031-0.25-0.047-0.359c-0.062-0.266-0.125-0.516-0.188-0.766     c-0.031-0.078-0.047-0.172-0.062-0.25c-0.078-0.219-0.156-0.453-0.25-0.672c-0.031-0.094-0.062-0.203-0.109-0.297     c-0.078-0.188-0.172-0.375-0.25-0.547c-0.062-0.141-0.125-0.281-0.203-0.406c-0.062-0.141-0.156-0.266-0.234-0.406     c-0.094-0.172-0.188-0.344-0.297-0.5c-0.062-0.094-0.141-0.188-0.203-0.281c-0.141-0.188-0.281-0.375-0.422-0.562     c-0.062-0.062-0.125-0.125-0.188-0.203c-0.156-0.188-0.328-0.375-0.5-0.562c-0.109-0.094-0.234-0.203-0.344-0.297     c-0.141-0.141-0.281-0.266-0.422-0.391c-0.281-0.234-0.562-0.438-0.859-0.641h-0.016c-0.047-0.031-0.094-0.062-0.141-0.094     c-0.25-0.156-0.5-0.312-0.766-0.453c-0.094-0.047-0.203-0.094-0.312-0.156c-0.203-0.094-0.406-0.203-0.625-0.281     c-0.141-0.062-0.297-0.109-0.438-0.172c-0.188-0.062-0.359-0.125-0.547-0.188c-0.188-0.047-0.359-0.094-0.547-0.141     c-0.156-0.031-0.312-0.078-0.453-0.109c-0.234-0.047-0.469-0.078-0.688-0.094c-0.125-0.016-0.234-0.047-0.359-0.062     c-0.281-0.016-0.578-0.031-0.875-0.031c-0.047-0.016-0.109-0.016-0.172-0.016h-0.031c-0.016,0-0.031,0-0.031,0h-85.217     c-0.016,0-0.031,0-0.047,0H138.7c-0.047,0-0.094,0-0.141,0c-0.297,0.016-0.609,0.016-0.906,0.047     c-0.109,0.016-0.219,0.031-0.328,0.047c-0.234,0.031-0.469,0.062-0.703,0.109c-0.156,0.031-0.297,0.078-0.438,0.109     c-0.188,0.047-0.391,0.094-0.578,0.141c-0.172,0.062-0.344,0.125-0.516,0.188c-0.156,0.062-0.312,0.109-0.453,0.172     c-0.219,0.078-0.422,0.188-0.625,0.281c-0.109,0.062-0.219,0.109-0.328,0.156c-0.25,0.141-0.5,0.297-0.75,0.453     c-0.047,0.031-0.094,0.062-0.156,0.094c-0.297,0.203-0.594,0.406-0.859,0.641c-0.156,0.125-0.281,0.25-0.422,0.391     c-0.125,0.094-0.234,0.203-0.344,0.297c-0.188,0.188-0.344,0.375-0.516,0.562c-0.062,0.078-0.125,0.141-0.172,0.203     c-0.156,0.188-0.281,0.375-0.422,0.562c-0.062,0.094-0.141,0.188-0.203,0.281c-0.109,0.156-0.203,0.328-0.312,0.5     c-0.078,0.141-0.156,0.266-0.234,0.406c-0.062,0.125-0.125,0.266-0.188,0.406c-0.094,0.172-0.188,0.359-0.266,0.547     c-0.031,0.094-0.062,0.203-0.109,0.297c-0.078,0.219-0.172,0.453-0.234,0.672c-0.031,0.078-0.047,0.172-0.062,0.25     c-0.062,0.25-0.141,0.5-0.188,0.766c-0.031,0.109-0.047,0.234-0.062,0.359c-0.031,0.219-0.078,0.453-0.094,0.688     c-0.031,0.344-0.062,0.688-0.062,1.031v0.016c0,0.062,0.016,0.125,0.016,0.188c0,0.281,0.016,0.562,0.047,0.859     c0,0.125,0.031,0.234,0.047,0.359c0.031,0.219,0.062,0.453,0.109,0.672c0.031,0.156,0.062,0.312,0.109,0.469     c0.047,0.188,0.078,0.359,0.141,0.547c0.047,0.188,0.125,0.359,0.188,0.547c0.047,0.141,0.094,0.281,0.156,0.422     c0.094,0.219,0.203,0.438,0.297,0.656c0.047,0.094,0.094,0.203,0.156,0.297c0.141,0.266,0.297,0.531,0.453,0.781     c0.031,0.031,0.047,0.078,0.078,0.125l0.016,0.016c0.016,0.016,0.016,0.031,0.031,0.047l19.374,29.077     c-1.562,22.109-20.046,39.624-42.546,39.624c-23.547,0-42.688-19.14-42.688-42.671V117.287V53.273     c0-4.039-2.281-7.734-5.89-9.547L15.437,22.391c-3.312-1.656-7.234-1.477-10.375,0.469C1.906,24.798,0,28.235,0,31.93v85.358     V384.04c0,58.827,47.858,106.687,106.701,106.687c57.718,0,104.873-46.078,106.639-103.374l19.562-29.343     c0-0.016,0.016-0.031,0.031-0.047v-0.016c0.031-0.047,0.047-0.094,0.078-0.125c0.172-0.25,0.328-0.516,0.469-0.781     c0.047-0.094,0.094-0.203,0.141-0.297c0.109-0.219,0.219-0.438,0.297-0.656c0.062-0.141,0.109-0.281,0.156-0.422     c0.078-0.188,0.141-0.359,0.203-0.547c0.047-0.188,0.094-0.359,0.141-0.547c0.031-0.156,0.078-0.312,0.109-0.469     c0.047-0.219,0.078-0.453,0.109-0.672c0.016-0.125,0.031-0.234,0.047-0.359c0.031-0.297,0.031-0.578,0.047-0.859     c0-0.062,0-0.125,0-0.188v-0.016c0-0.343-0.015-0.687-0.047-1.031C234.652,350.744,234.621,350.509,234.574,350.29z      M21.344,49.195l21.327,10.671v46.757H21.344V49.195z M21.344,127.959h21.327v245.394H21.344V127.959z M28.015,417.132     c-2.984-7.046-5.031-14.577-6.016-22.437h21.562v0.001c0.688,4.016,1.734,7.922,3.125,11.656L28.015,417.132z M55.125,452.008     c-6.189-4.703-11.704-10.235-16.407-16.422L57.39,424.82c2.562,3.094,5.421,5.953,8.515,8.516L55.125,452.008z M84.372,444.038     c3.734,1.391,7.625,2.438,11.656,3.125v21.563c-7.859-0.984-15.39-3.047-22.437-6.016L84.372,444.038z M117.357,468.726v-21.578     c26.781-4.516,47.952-25.688,52.468-52.452h21.562C186.558,433.258,155.919,463.898,117.357,468.726z M197.012,373.369h-31.265     l-7.109-10.672h45.483L197.012,373.369z" fill="#006DF0"/>
		</g>
	</g>
</g>
<g>
</g>
<g>
</g>
<g>
</g>
<g>
</g>
<g>
</g>
<g>
</g>
<g>
</g>
<g>
</g>
<g>
</g>
<g>
</g>
<g>
</g>
<g>
</g>
<g>
</g>
<g>
</g>
<g>
</g>
</svg>
